<mxfile host="app.diagrams.net" agent="Mozilla/5.0 (X11; Linux x86_64) AppleWebKit/537.36 (KHTML, like Gecko) Chrome/127.0.0.0 Safari/537.36" version="24.7.16">
  <diagram name="Page-1" id="Q_98LvUrLCfGk4hwmVdv">
    <mxGraphModel grid="1" page="1" gridSize="10" guides="1" tooltips="1" connect="1" arrows="1" fold="1" pageScale="1" pageWidth="850" pageHeight="1100" math="0" shadow="0">
      <root>
        <mxCell id="0" />
        <mxCell id="1" parent="0" />
        <mxCell id="9JJI4iWcKxeZEgp_YKz0-44" value="" style="rounded=0;whiteSpace=wrap;html=1;" vertex="1" parent="1">
          <mxGeometry x="380" y="810" width="340" height="420" as="geometry" />
        </mxCell>
        <mxCell id="9JJI4iWcKxeZEgp_YKz0-7" style="edgeStyle=orthogonalEdgeStyle;rounded=0;orthogonalLoop=1;jettySize=auto;html=1;" edge="1" parent="1" source="9JJI4iWcKxeZEgp_YKz0-1" target="9JJI4iWcKxeZEgp_YKz0-3">
          <mxGeometry relative="1" as="geometry" />
        </mxCell>
        <mxCell id="9JJI4iWcKxeZEgp_YKz0-24" value="Send plain data" style="edgeLabel;html=1;align=center;verticalAlign=middle;resizable=0;points=[];" vertex="1" connectable="0" parent="9JJI4iWcKxeZEgp_YKz0-7">
          <mxGeometry x="-0.1556" y="1" relative="1" as="geometry">
            <mxPoint as="offset" />
          </mxGeometry>
        </mxCell>
        <mxCell id="9JJI4iWcKxeZEgp_YKz0-1" value="Sensor" style="rounded=0;whiteSpace=wrap;html=1;" vertex="1" parent="1">
          <mxGeometry x="-30" y="260" width="120" height="60" as="geometry" />
        </mxCell>
        <mxCell id="9JJI4iWcKxeZEgp_YKz0-13" value="" style="edgeStyle=orthogonalEdgeStyle;rounded=0;orthogonalLoop=1;jettySize=auto;html=1;" edge="1" parent="1" source="9JJI4iWcKxeZEgp_YKz0-3" target="9JJI4iWcKxeZEgp_YKz0-16">
          <mxGeometry relative="1" as="geometry">
            <mxPoint x="380" y="290" as="targetPoint" />
          </mxGeometry>
        </mxCell>
        <mxCell id="9JJI4iWcKxeZEgp_YKz0-14" value="Loads File&lt;br&gt;(Up to 1Gb)" style="edgeLabel;html=1;align=center;verticalAlign=middle;resizable=0;points=[];" vertex="1" connectable="0" parent="9JJI4iWcKxeZEgp_YKz0-13">
          <mxGeometry x="-0.0152" relative="1" as="geometry">
            <mxPoint as="offset" />
          </mxGeometry>
        </mxCell>
        <mxCell id="9JJI4iWcKxeZEgp_YKz0-3" value="SFTP Server&lt;br&gt;(on-premise)&lt;br&gt;Weather data" style="image;aspect=fixed;perimeter=ellipsePerimeter;html=1;align=center;shadow=0;dashed=0;spacingTop=3;image=img/lib/active_directory/generic_server.svg;" vertex="1" parent="1">
          <mxGeometry x="220" y="265" width="28.000000000000004" height="50" as="geometry" />
        </mxCell>
        <mxCell id="9JJI4iWcKxeZEgp_YKz0-6" value="Exteral Weather&lt;div&gt;Data API&lt;/div&gt;" style="image;aspect=fixed;perimeter=ellipsePerimeter;html=1;align=center;shadow=0;dashed=0;spacingTop=3;image=img/lib/active_directory/web_server.svg;" vertex="1" parent="1">
          <mxGeometry x="220" y="430" width="40" height="50" as="geometry" />
        </mxCell>
        <mxCell id="9JJI4iWcKxeZEgp_YKz0-16" value="AWS S3 Bucket&lt;br&gt;Sensors Data" style="sketch=0;points=[[0,0,0],[0.25,0,0],[0.5,0,0],[0.75,0,0],[1,0,0],[0,1,0],[0.25,1,0],[0.5,1,0],[0.75,1,0],[1,1,0],[0,0.25,0],[0,0.5,0],[0,0.75,0],[1,0.25,0],[1,0.5,0],[1,0.75,0]];outlineConnect=0;fontColor=#232F3E;fillColor=#7AA116;strokeColor=#ffffff;dashed=0;verticalLabelPosition=bottom;verticalAlign=top;align=center;html=1;fontSize=12;fontStyle=0;aspect=fixed;shape=mxgraph.aws4.resourceIcon;resIcon=mxgraph.aws4.s3;" vertex="1" parent="1">
          <mxGeometry x="380" y="251" width="78" height="78" as="geometry" />
        </mxCell>
        <mxCell id="9JJI4iWcKxeZEgp_YKz0-23" style="edgeStyle=orthogonalEdgeStyle;rounded=0;orthogonalLoop=1;jettySize=auto;html=1;" edge="1" parent="1" source="9JJI4iWcKxeZEgp_YKz0-17" target="9JJI4iWcKxeZEgp_YKz0-6">
          <mxGeometry relative="1" as="geometry" />
        </mxCell>
        <mxCell id="9JJI4iWcKxeZEgp_YKz0-25" value="Consumes" style="edgeLabel;html=1;align=center;verticalAlign=middle;resizable=0;points=[];" vertex="1" connectable="0" parent="9JJI4iWcKxeZEgp_YKz0-23">
          <mxGeometry x="0.0143" relative="1" as="geometry">
            <mxPoint as="offset" />
          </mxGeometry>
        </mxCell>
        <mxCell id="9JJI4iWcKxeZEgp_YKz0-17" value="AWS Lambda" style="sketch=0;points=[[0,0,0],[0.25,0,0],[0.5,0,0],[0.75,0,0],[1,0,0],[0,1,0],[0.25,1,0],[0.5,1,0],[0.75,1,0],[1,1,0],[0,0.25,0],[0,0.5,0],[0,0.75,0],[1,0.25,0],[1,0.5,0],[1,0.75,0]];outlineConnect=0;fontColor=#232F3E;fillColor=#ED7100;strokeColor=#ffffff;dashed=0;verticalLabelPosition=bottom;verticalAlign=top;align=center;html=1;fontSize=12;fontStyle=0;aspect=fixed;shape=mxgraph.aws4.resourceIcon;resIcon=mxgraph.aws4.lambda;" vertex="1" parent="1">
          <mxGeometry x="540" y="416" width="78" height="78" as="geometry" />
        </mxCell>
        <mxCell id="9JJI4iWcKxeZEgp_YKz0-20" style="edgeStyle=orthogonalEdgeStyle;rounded=0;orthogonalLoop=1;jettySize=auto;html=1;entryX=0.5;entryY=0;entryDx=0;entryDy=0;entryPerimeter=0;" edge="1" parent="1" source="9JJI4iWcKxeZEgp_YKz0-16" target="9JJI4iWcKxeZEgp_YKz0-17">
          <mxGeometry relative="1" as="geometry" />
        </mxCell>
        <mxCell id="9JJI4iWcKxeZEgp_YKz0-22" value="Triggers" style="edgeLabel;html=1;align=center;verticalAlign=middle;resizable=0;points=[];" vertex="1" connectable="0" parent="9JJI4iWcKxeZEgp_YKz0-20">
          <mxGeometry x="0.4818" y="-2" relative="1" as="geometry">
            <mxPoint as="offset" />
          </mxGeometry>
        </mxCell>
        <mxCell id="9JJI4iWcKxeZEgp_YKz0-27" value="AWS S3 Bucket&lt;br&gt;Data for Analysis" style="sketch=0;points=[[0,0,0],[0.25,0,0],[0.5,0,0],[0.75,0,0],[1,0,0],[0,1,0],[0.25,1,0],[0.5,1,0],[0.75,1,0],[1,1,0],[0,0.25,0],[0,0.5,0],[0,0.75,0],[1,0.25,0],[1,0.5,0],[1,0.75,0]];outlineConnect=0;fontColor=#232F3E;fillColor=#7AA116;strokeColor=#ffffff;dashed=0;verticalLabelPosition=bottom;verticalAlign=top;align=center;html=1;fontSize=12;fontStyle=0;aspect=fixed;shape=mxgraph.aws4.resourceIcon;resIcon=mxgraph.aws4.s3;" vertex="1" parent="1">
          <mxGeometry x="840" y="416" width="78" height="78" as="geometry" />
        </mxCell>
        <mxCell id="9JJI4iWcKxeZEgp_YKz0-28" style="edgeStyle=orthogonalEdgeStyle;rounded=0;orthogonalLoop=1;jettySize=auto;html=1;entryX=0;entryY=0.5;entryDx=0;entryDy=0;entryPerimeter=0;" edge="1" parent="1" source="9JJI4iWcKxeZEgp_YKz0-17" target="9JJI4iWcKxeZEgp_YKz0-27">
          <mxGeometry relative="1" as="geometry">
            <Array as="points">
              <mxPoint x="670" y="455" />
              <mxPoint x="670" y="455" />
            </Array>
          </mxGeometry>
        </mxCell>
        <mxCell id="9JJI4iWcKxeZEgp_YKz0-30" value="Loads Aggregated Data" style="edgeLabel;html=1;align=center;verticalAlign=middle;resizable=0;points=[];" vertex="1" connectable="0" parent="9JJI4iWcKxeZEgp_YKz0-28">
          <mxGeometry x="0.0282" relative="1" as="geometry">
            <mxPoint as="offset" />
          </mxGeometry>
        </mxCell>
        <mxCell id="9JJI4iWcKxeZEgp_YKz0-33" value="AWS EC2&lt;br&gt;(ML Model Running)" style="sketch=0;points=[[0,0,0],[0.25,0,0],[0.5,0,0],[0.75,0,0],[1,0,0],[0,1,0],[0.25,1,0],[0.5,1,0],[0.75,1,0],[1,1,0],[0,0.25,0],[0,0.5,0],[0,0.75,0],[1,0.25,0],[1,0.5,0],[1,0.75,0]];outlineConnect=0;fontColor=#232F3E;fillColor=#ED7100;strokeColor=#ffffff;dashed=0;verticalLabelPosition=bottom;verticalAlign=top;align=center;html=1;fontSize=12;fontStyle=0;aspect=fixed;shape=mxgraph.aws4.resourceIcon;resIcon=mxgraph.aws4.ec2;" vertex="1" parent="1">
          <mxGeometry x="-17.5" y="590" width="78" height="78" as="geometry" />
        </mxCell>
        <mxCell id="9JJI4iWcKxeZEgp_YKz0-35" value="" style="outlineConnect=0;dashed=0;verticalLabelPosition=bottom;verticalAlign=top;align=center;html=1;shape=mxgraph.aws3.machine_learning;fillColor=#2E73B8;gradientColor=none;" vertex="1" parent="1">
          <mxGeometry x="47.5" y="650" width="30" height="40" as="geometry" />
        </mxCell>
        <mxCell id="9JJI4iWcKxeZEgp_YKz0-36" style="edgeStyle=orthogonalEdgeStyle;rounded=0;orthogonalLoop=1;jettySize=auto;html=1;entryX=0.5;entryY=1;entryDx=0;entryDy=0;entryPerimeter=0;" edge="1" parent="1" source="9JJI4iWcKxeZEgp_YKz0-33" target="9JJI4iWcKxeZEgp_YKz0-27">
          <mxGeometry relative="1" as="geometry">
            <Array as="points">
              <mxPoint x="22" y="560" />
              <mxPoint x="879" y="560" />
            </Array>
          </mxGeometry>
        </mxCell>
        <mxCell id="9JJI4iWcKxeZEgp_YKz0-37" value="Analyze Weather Data" style="edgeLabel;html=1;align=center;verticalAlign=middle;resizable=0;points=[];" vertex="1" connectable="0" parent="9JJI4iWcKxeZEgp_YKz0-36">
          <mxGeometry x="-0.0739" relative="1" as="geometry">
            <mxPoint as="offset" />
          </mxGeometry>
        </mxCell>
        <mxCell id="9JJI4iWcKxeZEgp_YKz0-39" value="AWS MSK" style="sketch=0;points=[[0,0,0],[0.25,0,0],[0.5,0,0],[0.75,0,0],[1,0,0],[0,1,0],[0.25,1,0],[0.5,1,0],[0.75,1,0],[1,1,0],[0,0.25,0],[0,0.5,0],[0,0.75,0],[1,0.25,0],[1,0.5,0],[1,0.75,0]];outlineConnect=0;fontColor=#232F3E;fillColor=#8C4FFF;strokeColor=#ffffff;dashed=0;verticalLabelPosition=bottom;verticalAlign=top;align=center;html=1;fontSize=12;fontStyle=0;aspect=fixed;shape=mxgraph.aws4.resourceIcon;resIcon=mxgraph.aws4.managed_streaming_for_kafka;" vertex="1" parent="1">
          <mxGeometry x="210" y="590" width="78" height="78" as="geometry" />
        </mxCell>
        <mxCell id="9JJI4iWcKxeZEgp_YKz0-40" value="Publish Forcasting&lt;br&gt;(Labeled by Zone)" style="edgeStyle=orthogonalEdgeStyle;rounded=0;orthogonalLoop=1;jettySize=auto;html=1;entryX=0;entryY=0.5;entryDx=0;entryDy=0;entryPerimeter=0;" edge="1" parent="1" source="9JJI4iWcKxeZEgp_YKz0-33" target="9JJI4iWcKxeZEgp_YKz0-39">
          <mxGeometry relative="1" as="geometry" />
        </mxCell>
        <mxCell id="9JJI4iWcKxeZEgp_YKz0-45" value="Cluster: agromanagement" style="text;html=1;align=center;verticalAlign=middle;whiteSpace=wrap;rounded=0;" vertex="1" parent="1">
          <mxGeometry x="380" y="810" width="160" height="30" as="geometry" />
        </mxCell>
        <mxCell id="9JJI4iWcKxeZEgp_YKz0-53" value="Reads forecasting" style="edgeStyle=orthogonalEdgeStyle;rounded=0;orthogonalLoop=1;jettySize=auto;html=1;" edge="1" parent="1" source="9JJI4iWcKxeZEgp_YKz0-76" target="9JJI4iWcKxeZEgp_YKz0-39">
          <mxGeometry relative="1" as="geometry">
            <mxPoint x="550" y="889" as="sourcePoint" />
            <Array as="points">
              <mxPoint x="550" y="629" />
            </Array>
            <mxPoint as="offset" />
          </mxGeometry>
        </mxCell>
        <mxCell id="9JJI4iWcKxeZEgp_YKz0-50" value="AWS RDS&lt;br&gt;Users&lt;br&gt;Crops" style="sketch=0;points=[[0,0,0],[0.25,0,0],[0.5,0,0],[0.75,0,0],[1,0,0],[0,1,0],[0.25,1,0],[0.5,1,0],[0.75,1,0],[1,1,0],[0,0.25,0],[0,0.5,0],[0,0.75,0],[1,0.25,0],[1,0.5,0],[1,0.75,0]];outlineConnect=0;fontColor=#232F3E;fillColor=#C925D1;strokeColor=#ffffff;dashed=0;verticalLabelPosition=bottom;verticalAlign=top;align=center;html=1;fontSize=12;fontStyle=0;aspect=fixed;shape=mxgraph.aws4.resourceIcon;resIcon=mxgraph.aws4.rds;" vertex="1" parent="1">
          <mxGeometry x="511" y="1310" width="78" height="78" as="geometry" />
        </mxCell>
        <mxCell id="9JJI4iWcKxeZEgp_YKz0-69" value="" style="edgeStyle=orthogonalEdgeStyle;rounded=0;orthogonalLoop=1;jettySize=auto;html=1;" edge="1" parent="1" source="9JJI4iWcKxeZEgp_YKz0-52" target="9JJI4iWcKxeZEgp_YKz0-68">
          <mxGeometry relative="1" as="geometry" />
        </mxCell>
        <mxCell id="9JJI4iWcKxeZEgp_YKz0-52" value="AWS API Gateway&lt;br&gt;(For Security)" style="sketch=0;points=[[0,0,0],[0.25,0,0],[0.5,0,0],[0.75,0,0],[1,0,0],[0,1,0],[0.25,1,0],[0.5,1,0],[0.75,1,0],[1,1,0],[0,0.25,0],[0,0.5,0],[0,0.75,0],[1,0.25,0],[1,0.5,0],[1,0.75,0]];outlineConnect=0;fontColor=#232F3E;fillColor=#E7157B;strokeColor=#ffffff;dashed=0;verticalLabelPosition=bottom;verticalAlign=top;align=center;html=1;fontSize=12;fontStyle=0;aspect=fixed;shape=mxgraph.aws4.resourceIcon;resIcon=mxgraph.aws4.api_gateway;" vertex="1" parent="1">
          <mxGeometry y="981" width="78" height="78" as="geometry" />
        </mxCell>
        <mxCell id="9JJI4iWcKxeZEgp_YKz0-56" value="Redirect" style="edgeStyle=orthogonalEdgeStyle;rounded=0;orthogonalLoop=1;jettySize=auto;html=1;" edge="1" parent="1" source="9JJI4iWcKxeZEgp_YKz0-68" target="9JJI4iWcKxeZEgp_YKz0-76">
          <mxGeometry relative="1" as="geometry">
            <mxPoint x="427.00000000000045" y="913.0434782608697" as="sourcePoint" />
            <mxPoint x="525" y="913" as="targetPoint" />
            <Array as="points">
              <mxPoint x="310" y="1020" />
              <mxPoint x="310" y="913" />
            </Array>
          </mxGeometry>
        </mxCell>
        <mxCell id="9JJI4iWcKxeZEgp_YKz0-58" value="" style="endArrow=none;html=1;rounded=0;" edge="1" parent="1">
          <mxGeometry width="50" height="50" relative="1" as="geometry">
            <mxPoint x="-80" y="720" as="sourcePoint" />
            <mxPoint x="940" y="720" as="targetPoint" />
          </mxGeometry>
        </mxCell>
        <mxCell id="9JJI4iWcKxeZEgp_YKz0-59" value="AWS SES&lt;br&gt;(Send Alerts related to Forecasts)" style="sketch=0;points=[[0,0,0],[0.25,0,0],[0.5,0,0],[0.75,0,0],[1,0,0],[0,1,0],[0.25,1,0],[0.5,1,0],[0.75,1,0],[1,1,0],[0,0.25,0],[0,0.5,0],[0,0.75,0],[1,0.25,0],[1,0.5,0],[1,0.75,0]];outlineConnect=0;fontColor=#232F3E;fillColor=#DD344C;strokeColor=#ffffff;dashed=0;verticalLabelPosition=bottom;verticalAlign=top;align=center;html=1;fontSize=12;fontStyle=0;aspect=fixed;shape=mxgraph.aws4.resourceIcon;resIcon=mxgraph.aws4.simple_email_service;" vertex="1" parent="1">
          <mxGeometry x="810" y="874" width="78" height="78" as="geometry" />
        </mxCell>
        <mxCell id="9JJI4iWcKxeZEgp_YKz0-60" value="Send Alert" style="edgeStyle=orthogonalEdgeStyle;rounded=0;orthogonalLoop=1;jettySize=auto;html=1;entryX=0;entryY=0.5;entryDx=0;entryDy=0;entryPerimeter=0;" edge="1" parent="1" source="9JJI4iWcKxeZEgp_YKz0-76" target="9JJI4iWcKxeZEgp_YKz0-59">
          <mxGeometry relative="1" as="geometry">
            <mxPoint x="575" y="912.9999999999995" as="sourcePoint" />
            <Array as="points" />
          </mxGeometry>
        </mxCell>
        <mxCell id="9JJI4iWcKxeZEgp_YKz0-70" value="Send Billing" style="edgeStyle=orthogonalEdgeStyle;rounded=0;orthogonalLoop=1;jettySize=auto;html=1;" edge="1" parent="1" source="9JJI4iWcKxeZEgp_YKz0-77" target="9JJI4iWcKxeZEgp_YKz0-59">
          <mxGeometry relative="1" as="geometry">
            <mxPoint x="575" y="1084" as="sourcePoint" />
            <Array as="points">
              <mxPoint x="849" y="1084" />
            </Array>
          </mxGeometry>
        </mxCell>
        <mxCell id="9JJI4iWcKxeZEgp_YKz0-73" style="edgeStyle=orthogonalEdgeStyle;rounded=0;orthogonalLoop=1;jettySize=auto;html=1;" edge="1" parent="1" source="9JJI4iWcKxeZEgp_YKz0-76" target="9JJI4iWcKxeZEgp_YKz0-71">
          <mxGeometry relative="1" as="geometry">
            <mxPoint x="575" y="912.9999999999995" as="sourcePoint" />
          </mxGeometry>
        </mxCell>
        <mxCell id="9JJI4iWcKxeZEgp_YKz0-65" value="Redirects" style="edgeStyle=orthogonalEdgeStyle;rounded=0;orthogonalLoop=1;jettySize=auto;html=1;" edge="1" parent="1" source="9JJI4iWcKxeZEgp_YKz0-68" target="9JJI4iWcKxeZEgp_YKz0-77">
          <mxGeometry relative="1" as="geometry">
            <mxPoint x="432.5" y="1084.0000000000002" as="sourcePoint" />
            <mxPoint x="525" y="1084" as="targetPoint" />
            <Array as="points">
              <mxPoint x="310" y="1020" />
              <mxPoint x="310" y="1084" />
            </Array>
          </mxGeometry>
        </mxCell>
        <mxCell id="9JJI4iWcKxeZEgp_YKz0-66" style="edgeStyle=orthogonalEdgeStyle;rounded=0;orthogonalLoop=1;jettySize=auto;html=1;" edge="1" parent="1" source="9JJI4iWcKxeZEgp_YKz0-77" target="9JJI4iWcKxeZEgp_YKz0-50">
          <mxGeometry relative="1" as="geometry">
            <mxPoint x="550" y="1108" as="sourcePoint" />
          </mxGeometry>
        </mxCell>
        <mxCell id="9JJI4iWcKxeZEgp_YKz0-68" value="AWS EC2 Load Balancer" style="sketch=0;points=[[0,0,0],[0.25,0,0],[0.5,0,0],[0.75,0,0],[1,0,0],[0,1,0],[0.25,1,0],[0.5,1,0],[0.75,1,0],[1,1,0],[0,0.25,0],[0,0.5,0],[0,0.75,0],[1,0.25,0],[1,0.5,0],[1,0.75,0]];outlineConnect=0;fontColor=#232F3E;fillColor=#ED7100;strokeColor=#ffffff;dashed=0;verticalLabelPosition=bottom;verticalAlign=top;align=center;html=1;fontSize=12;fontStyle=0;aspect=fixed;shape=mxgraph.aws4.resourceIcon;resIcon=mxgraph.aws4.elastic_load_balancing;" vertex="1" parent="1">
          <mxGeometry x="170" y="981" width="78" height="78" as="geometry" />
        </mxCell>
        <mxCell id="9JJI4iWcKxeZEgp_YKz0-71" value="Forecast&lt;br&gt;Orders&lt;br&gt;Payments&lt;br&gt;Products" style="sketch=0;points=[[0,0,0],[0.25,0,0],[0.5,0,0],[0.75,0,0],[1,0,0],[0,1,0],[0.25,1,0],[0.5,1,0],[0.75,1,0],[1,1,0],[0,0.25,0],[0,0.5,0],[0,0.75,0],[1,0.25,0],[1,0.5,0],[1,0.75,0]];outlineConnect=0;fontColor=#232F3E;fillColor=#C925D1;strokeColor=#ffffff;dashed=0;verticalLabelPosition=bottom;verticalAlign=top;align=center;html=1;fontSize=12;fontStyle=0;aspect=fixed;shape=mxgraph.aws4.resourceIcon;resIcon=mxgraph.aws4.dynamodb;" vertex="1" parent="1">
          <mxGeometry x="610" y="1500" width="78" height="78" as="geometry" />
        </mxCell>
        <mxCell id="9JJI4iWcKxeZEgp_YKz0-72" style="edgeStyle=orthogonalEdgeStyle;rounded=0;orthogonalLoop=1;jettySize=auto;html=1;" edge="1" parent="1" source="9JJI4iWcKxeZEgp_YKz0-77" target="9JJI4iWcKxeZEgp_YKz0-71">
          <mxGeometry relative="1" as="geometry">
            <mxPoint x="575" y="1084" as="sourcePoint" />
            <Array as="points">
              <mxPoint x="630" y="1084" />
            </Array>
          </mxGeometry>
        </mxCell>
        <mxCell id="9JJI4iWcKxeZEgp_YKz0-74" value="AWS ECR" style="sketch=0;points=[[0,0,0],[0.25,0,0],[0.5,0,0],[0.75,0,0],[1,0,0],[0,1,0],[0.25,1,0],[0.5,1,0],[0.75,1,0],[1,1,0],[0,0.25,0],[0,0.5,0],[0,0.75,0],[1,0.25,0],[1,0.5,0],[1,0.75,0]];outlineConnect=0;fontColor=#232F3E;fillColor=#ED7100;strokeColor=#ffffff;dashed=0;verticalLabelPosition=bottom;verticalAlign=top;align=center;html=1;fontSize=12;fontStyle=0;aspect=fixed;shape=mxgraph.aws4.resourceIcon;resIcon=mxgraph.aws4.ecr;" vertex="1" parent="1">
          <mxGeometry x="860" y="732" width="78" height="78" as="geometry" />
        </mxCell>
        <mxCell id="9JJI4iWcKxeZEgp_YKz0-75" value="" style="sketch=0;points=[[0,0,0],[0.25,0,0],[0.5,0,0],[0.75,0,0],[1,0,0],[0,1,0],[0.25,1,0],[0.5,1,0],[0.75,1,0],[1,1,0],[0,0.25,0],[0,0.5,0],[0,0.75,0],[1,0.25,0],[1,0.5,0],[1,0.75,0]];outlineConnect=0;fontColor=#232F3E;fillColor=#ED7100;strokeColor=#ffffff;dashed=0;verticalLabelPosition=bottom;verticalAlign=top;align=center;html=1;fontSize=12;fontStyle=0;aspect=fixed;shape=mxgraph.aws4.resourceIcon;resIcon=mxgraph.aws4.ecs;" vertex="1" parent="1">
          <mxGeometry x="380" y="1152" width="78" height="78" as="geometry" />
        </mxCell>
        <mxCell id="9JJI4iWcKxeZEgp_YKz0-76" value="&lt;span style=&quot;color: rgb(0, 0, 0);&quot;&gt;ForecastingService&lt;/span&gt;&lt;br style=&quot;color: rgb(0, 0, 0);&quot;&gt;&lt;span style=&quot;color: rgb(0, 0, 0);&quot;&gt;GET /crops/${cropId}/history&lt;/span&gt;&lt;br style=&quot;color: rgb(0, 0, 0);&quot;&gt;&lt;span style=&quot;color: rgb(0, 0, 0);&quot;&gt;GET /forecasting/${zoneId}/live&lt;/span&gt;" style="sketch=0;outlineConnect=0;fontColor=#232F3E;gradientColor=none;fillColor=#ED7100;strokeColor=none;dashed=0;verticalLabelPosition=bottom;verticalAlign=top;align=center;html=1;fontSize=12;fontStyle=0;aspect=fixed;pointerEvents=1;shape=mxgraph.aws4.container_1;" vertex="1" parent="1">
          <mxGeometry x="526" y="897" width="48" height="31" as="geometry" />
        </mxCell>
        <mxCell id="9JJI4iWcKxeZEgp_YKz0-77" value="&lt;span style=&quot;color: rgb(0, 0, 0);&quot;&gt;ManagementService&lt;/span&gt;&lt;br style=&quot;color: rgb(0, 0, 0);&quot;&gt;&lt;span style=&quot;color: rgb(0, 0, 0);&quot;&gt;Register / Update&lt;/span&gt;&lt;br style=&quot;color: rgb(0, 0, 0);&quot;&gt;&lt;span style=&quot;color: rgb(0, 0, 0);&quot;&gt;Users / Crops / Orders&lt;/span&gt;" style="sketch=0;outlineConnect=0;fontColor=#232F3E;gradientColor=none;fillColor=#ED7100;strokeColor=none;dashed=0;verticalLabelPosition=bottom;verticalAlign=top;align=center;html=1;fontSize=12;fontStyle=0;aspect=fixed;pointerEvents=1;shape=mxgraph.aws4.container_1;" vertex="1" parent="1">
          <mxGeometry x="526" y="1068.5" width="48" height="31" as="geometry" />
        </mxCell>
        <mxCell id="9JJI4iWcKxeZEgp_YKz0-81" value="&lt;font color=&quot;#000000&quot;&gt;OpenTelemetry&lt;/font&gt;" style="sketch=0;outlineConnect=0;fontColor=#232F3E;gradientColor=none;fillColor=#ED7100;strokeColor=none;dashed=0;verticalLabelPosition=bottom;verticalAlign=top;align=center;html=1;fontSize=12;fontStyle=0;aspect=fixed;pointerEvents=1;shape=mxgraph.aws4.container_1;" vertex="1" parent="1">
          <mxGeometry x="640" y="820" width="48" height="31" as="geometry" />
        </mxCell>
        <mxCell id="9JJI4iWcKxeZEgp_YKz0-82" value="" style="sketch=0;outlineConnect=0;fontColor=#232F3E;gradientColor=none;fillColor=#232F3D;strokeColor=none;dashed=0;verticalLabelPosition=bottom;verticalAlign=top;align=center;html=1;fontSize=12;fontStyle=0;aspect=fixed;pointerEvents=1;shape=mxgraph.aws4.metrics;" vertex="1" parent="1">
          <mxGeometry x="600.42" y="858" width="17.58" height="16" as="geometry" />
        </mxCell>
      </root>
    </mxGraphModel>
  </diagram>
</mxfile>
